<?xml version="1.0" encoding="utf-8"?>
<!-- Generator: Adobe Illustrator 16.0.0, SVG Export Plug-In . SVG Version: 6.00 Build 0)  -->
<!DOCTYPE svg PUBLIC "-//W3C//DTD SVG 1.1//EN" "http://www.w3.org/Graphics/SVG/1.1/DTD/svg11.dtd">
<svg version="1.1" id="Layer_1" xmlns="http://www.w3.org/2000/svg" xmlns:xlink="http://www.w3.org/1999/xlink" x="0px" y="0px"
	 width="500px" height="500px" viewBox="0 0 500 500" enable-background="new 0 0 500 500" xml:space="preserve">
<g>
	<path fill="#35495E" d="M192.295,303.42c0,6.721-4.872,11.593-11.256,11.593s-11.256-4.872-11.256-11.593
		c0-6.887,4.872-11.76,11.256-11.76S192.295,296.533,192.295,303.42z M171.463,418.332v-89.375h19.152v89.375H171.463z"/>
	<path fill="#35495E" d="M220.015,418.332V293.677h19.32v124.655H220.015z"/>
	<path fill="#35495E" d="M283.35,408.588c0,6.553-4.535,11.256-10.584,11.256c-6.047,0-10.584-4.703-10.584-11.256
		c0-6.384,4.537-10.92,10.584-10.92C278.814,397.668,283.35,402.204,283.35,408.588z"/>
	<path fill="#35495E" d="M363.315,337.188l-7.056,14.28c-7.896-4.873-17.808-7.896-25.703-7.896c-7.561,0-13.104,2.52-13.104,8.904
		c0,16.464,47.544,7.56,47.376,39.983c0,18.312-16.297,26.544-34.271,26.544c-13.104,0-27.049-4.367-35.953-12.432l6.889-13.776
		c7.729,6.888,20.16,11.089,29.904,11.089c8.231,0,14.615-2.856,14.615-9.576c0-18.313-47.039-8.064-46.871-40.32
		c0-18.145,15.791-25.872,32.928-25.872C343.324,328.116,355.252,331.477,363.315,337.188z"/>
	<path fill="#35495E" d="M462.938,381.036h-67.535c3.023,13.776,13.607,22.344,27.72,22.344c9.744,0,18.647-3.696,25.2-10.415
		l10.247,10.92c-8.735,9.575-21.504,15.119-36.959,15.119c-27.553,0-45.696-18.313-45.696-45.191
		c0-27.049,18.648-45.359,45.192-45.528C452.521,328.284,465.29,348.78,462.938,381.036z M446.138,366.924
		c-0.672-14.447-10.248-23.184-24.863-23.184c-14.112,0-24.024,8.904-26.208,23.184H446.138z"/>
</g>
<path fill="#2C3E50" stroke="#2C3E50" stroke-width="6" stroke-miterlimit="10" d="M319.583,230.41
	c-18.585-2.145-33.013-20.404-52.58-52.037c4.173-6.175,7.928-11.875,11.684-18.05c10.301-14.886,22.864-31.045,40.896-32.636
	v-19.853c-27.468,2.511-44.452,25.745-62.176,55.339c-4.59-6.65-8.762-13.775-13.351-19.95
	c-13.11-18.544-27.739-34.063-49.639-35.505v20.533c20.806,4.404,36.495,28.797,50.474,52.022
	c-12.396,18.209-28.243,47.741-50.474,50.172v20.313c13.734-1.376,24.197-7.622,33.367-16.809
	c10.848-10.925,19.61-25.65,27.955-38.476c20.314,32.842,38.259,54.415,63.844,55.522V230.41z"/>
<path fill="#3B97D3" stroke="#3B97D3" stroke-width="6" stroke-miterlimit="10" d="M178.25,228.911
	c-21.921-5.776-34.288-25.533-34.288-48.638c0-31.032,16.071-47.354,34.288-51.591v-19.819
	c-29.228,5.375-56.613,28.19-56.613,70.936c0,35.972,24.327,64.983,56.613,70.35V228.911z"/>
<path fill="#3B97D3" stroke="#3B97D3" stroke-width="6" stroke-miterlimit="10" d="M335.75,108.7v21.04
	c17.604,5.869,30.465,23.366,30.465,50.059c0,20.657-9.975,42.3-30.465,48.835v20.719c29.68-6.705,52.791-33.057,52.791-70.98
	v-0.475C388.541,141.624,366.062,114.358,335.75,108.7z"/>
<path fill="#35495E" stroke="#35495E" stroke-width="6" stroke-miterlimit="10" d="M147.667,399.945
	c-11.957-1.707-21.239-16.241-33.828-41.421c2.685-4.915,5.101-9.452,7.517-14.368c6.627-11.848,14.71-24.711,26.312-25.978v-15.803
	c-17.672,1.999-28.599,20.493-40.002,44.05c-2.953-5.293-5.637-10.964-8.589-15.88c-8.435-14.761-17.847-27.114-31.936-28.262
	v16.344c13.386,3.505,23.48,22.922,32.473,41.409c-7.975,14.494-18.17,38.002-32.473,39.937v16.169
	c8.836-1.096,15.568-6.067,21.467-13.38c6.979-8.696,12.617-20.417,17.985-30.627c13.069,26.143,24.614,43.313,41.075,44.196
	V399.945z"/>
<g>
</g>
<g>
</g>
<g>
</g>
<g>
</g>
<g>
</g>
<g>
</g>
</svg>
